<svg width="28" height="20" viewBox="0 0 28 20" fill="none" xmlns="http://www.w3.org/2000/svg">
<path d="M14 1.35398C12.2762 0.0612467 9.77725 -0.131061 7.50225 0.0673518C4.85275 0.300868 2.17875 1.09299 0.51275 1.75386C0.359886 1.8145 0.230257 1.91221 0.139337 2.03535C0.0484167 2.15849 4.65e-05 2.30185 0 2.44831L0 19.2371C4.05335e-05 19.3648 0.036815 19.4904 0.106955 19.6025C0.177095 19.7146 0.278358 19.8095 0.401469 19.8786C0.52458 19.9477 0.665603 19.9887 0.811621 19.998C0.957639 20.0072 1.10398 19.9844 1.23725 19.9315C2.78075 19.321 5.2675 18.5869 7.67725 18.3748C10.143 18.158 12.2098 18.5075 13.3175 19.7133C13.3995 19.8024 13.5034 19.8743 13.6215 19.9238C13.7396 19.9732 13.869 19.9989 14 19.9989C14.131 19.9989 14.2604 19.9732 14.3785 19.9238C14.4966 19.8743 14.6005 19.8024 14.6825 19.7133C15.7903 18.5075 17.857 18.158 20.321 18.3748C22.7325 18.5869 25.221 19.321 26.7628 19.9315C26.896 19.9844 27.0424 20.0072 27.1884 19.998C27.3344 19.9887 27.4754 19.9477 27.5985 19.8786C27.7216 19.8095 27.8229 19.7146 27.893 19.6025C27.9632 19.4904 28 19.3648 28 19.2371V2.44831C28 2.30185 27.9516 2.15849 27.8607 2.03535C27.7697 1.91221 27.6401 1.8145 27.4872 1.75386C25.8212 1.09299 23.1473 0.300868 20.4978 0.0673518C18.2227 -0.132587 15.7238 0.0612467 14 1.35398Z" fill="white"/>
</svg>
