<svg width="19" height="20" viewBox="0 0 19 20" fill="none" xmlns="http://www.w3.org/2000/svg">
<path fill-rule="evenodd" clip-rule="evenodd" d="M17.9023 11.5801C18.26 11.7701 18.536 12.0701 18.7301 12.3701C19.1083 12.9901 19.0776 13.7501 18.7097 14.4201L17.9943 15.6201C17.6162 16.2601 16.911 16.6601 16.1855 16.6601C15.8278 16.6601 15.4292 16.5601 15.1022 16.3601C14.8365 16.1901 14.5299 16.1301 14.2029 16.1301C13.1911 16.1301 12.3429 16.9601 12.3122 17.9501C12.3122 19.1001 11.372 20.0001 10.1968 20.0001H8.80692C7.62145 20.0001 6.68125 19.1001 6.68125 17.9501C6.66081 16.9601 5.81259 16.1301 4.80085 16.1301C4.46361 16.1301 4.15702 16.1901 3.90153 16.3601C3.5745 16.5601 3.16572 16.6601 2.81825 16.6601C2.08245 16.6601 1.37729 16.2601 0.99917 15.6201L0.29402 14.4201C-0.0841044 13.7701 -0.104544 12.9901 0.273581 12.3701C0.437094 12.0701 0.743681 11.7701 1.09115 11.5801C1.37729 11.4401 1.56125 11.2101 1.73498 10.9401C2.24596 10.0801 1.93937 8.95012 1.07071 8.44012C0.0589696 7.87012 -0.268057 6.60012 0.314459 5.61012L0.99917 4.43012C1.59191 3.44012 2.85913 3.09012 3.88109 3.67012C4.77019 4.15012 5.925 3.83012 6.4462 2.98012C6.60972 2.70012 6.70169 2.40012 6.68125 2.10012C6.66081 1.71012 6.77323 1.34012 6.9674 1.04012C7.34553 0.420122 8.03024 0.0201221 8.77627 0.00012207H10.2172C10.9735 0.00012207 11.6582 0.420122 12.0363 1.04012C12.2203 1.34012 12.3429 1.71012 12.3122 2.10012C12.2918 2.40012 12.3838 2.70012 12.5473 2.98012C13.0685 3.83012 14.2233 4.15012 15.1226 3.67012C16.1344 3.09012 17.4118 3.44012 17.9943 4.43012L18.679 5.61012C19.2718 6.60012 18.9447 7.87012 17.9228 8.44012C17.0541 8.95012 16.7475 10.0801 17.2687 10.9401C17.4322 11.2101 17.6162 11.4401 17.9023 11.5801ZM6.60972 10.0101C6.60972 11.5801 7.9076 12.8301 9.51208 12.8301C11.1165 12.8301 12.3838 11.5801 12.3838 10.0101C12.3838 8.44012 11.1165 7.18012 9.51208 7.18012C7.9076 7.18012 6.60972 8.44012 6.60972 10.0101Z" fill="white"/>
</svg>
